<svg width="29" height="29" viewBox="0 0 29 29" fill="none" xmlns="http://www.w3.org/2000/svg">
<path d="M9.96875 3.625C6.46519 3.625 3.625 6.46519 3.625 9.96875V19.0312C3.625 22.5348 6.46519 25.375 9.96875 25.375H19.0312C22.5348 25.375 25.375 22.5348 25.375 19.0312V14.5C25.375 13.9995 25.7807 13.5938 26.2812 13.5938C26.7818 13.5938 27.1875 13.9995 27.1875 14.5V19.0312C27.1875 23.5358 23.5358 27.1875 19.0312 27.1875H9.96875C5.46418 27.1875 1.8125 23.5358 1.8125 19.0312V9.96875C1.8125 5.46418 5.46418 1.8125 9.96875 1.8125H14.5C15.0005 1.8125 15.4062 2.21824 15.4062 2.71875C15.4062 3.21926 15.0005 3.625 14.5 3.625H9.96875Z" fill="#878DA9"/>
<path d="M29 5.4375C29 8.44055 26.5655 10.875 23.5625 10.875C20.5595 10.875 18.125 8.44055 18.125 5.4375C18.125 2.43445 20.5595 0 23.5625 0C26.5655 0 29 2.43445 29 5.4375Z" fill="#DB3939"/>
</svg>
