<svg width="27" height="27" viewBox="0 0 27 27" fill="none" xmlns="http://www.w3.org/2000/svg">
<path d="M13.9387 12.2625C11.385 11.5987 10.5637 10.9125 10.5637 9.84375C10.5637 8.6175 11.7 7.7625 13.6012 7.7625C15.6037 7.7625 16.3462 8.71875 16.4137 10.125H18.9C18.8212 8.19 17.64 6.4125 15.2887 5.83875V3.375H11.9137V5.805C9.73124 6.2775 7.97624 7.695 7.97624 9.86625C7.97624 12.465 10.125 13.7587 13.2637 14.5125C16.0762 15.1875 16.6387 16.1775 16.6387 17.2238C16.6387 18 16.0875 19.2375 13.6012 19.2375C11.2837 19.2375 10.3725 18.2025 10.2487 16.875H7.77374C7.90874 19.3387 9.75374 20.7225 11.9137 21.1838V23.625H15.2887V21.2063C17.4825 20.79 19.2262 19.5187 19.2262 17.2125C19.2262 14.0175 16.4925 12.9262 13.9387 12.2625Z" fill="#9CA1B6"/>
</svg>
