<svg width="27" height="27" viewBox="0 0 27 27" fill="none" xmlns="http://www.w3.org/2000/svg">
<path d="M10.125 15.4688C7.4925 15.4688 2.25 16.785 2.25 19.4062V21.375H18V19.4062C18 16.785 12.7575 15.4688 10.125 15.4688ZM4.8825 19.125C5.8275 18.4725 8.11125 17.7188 10.125 17.7188C12.1387 17.7188 14.4225 18.4725 15.3675 19.125H4.8825ZM10.125 13.5C12.2962 13.5 14.0625 11.7337 14.0625 9.5625C14.0625 7.39125 12.2962 5.625 10.125 5.625C7.95375 5.625 6.1875 7.39125 6.1875 9.5625C6.1875 11.7337 7.95375 13.5 10.125 13.5ZM10.125 7.875C11.0587 7.875 11.8125 8.62875 11.8125 9.5625C11.8125 10.4962 11.0587 11.25 10.125 11.25C9.19125 11.25 8.4375 10.4962 8.4375 9.5625C8.4375 8.62875 9.19125 7.875 10.125 7.875ZM18.045 15.5363C19.35 16.4813 20.25 17.7412 20.25 19.4062V21.375H24.75V19.4062C24.75 17.1338 20.8125 15.84 18.045 15.5363ZM16.875 13.5C19.0462 13.5 20.8125 11.7337 20.8125 9.5625C20.8125 7.39125 19.0462 5.625 16.875 5.625C16.2675 5.625 15.705 5.77125 15.1875 6.01875C15.8962 7.02 16.3125 8.24625 16.3125 9.5625C16.3125 10.8787 15.8962 12.105 15.1875 13.1062C15.705 13.3537 16.2675 13.5 16.875 13.5Z" fill="#9CA1B6"/>
</svg>
