<svg width="27" height="27" viewBox="0 0 27 27" fill="none" xmlns="http://www.w3.org/2000/svg">
<path d="M14.0966 1.93463C13.7671 1.60512 13.2329 1.60512 12.9034 1.93463L2.77838 12.0596C2.62014 12.2179 2.53125 12.4325 2.53125 12.6562V24.4688C2.53125 24.9347 2.90901 25.3125 3.375 25.3125H10.9688C11.4347 25.3125 11.8125 24.9347 11.8125 24.4688V17.7188H15.1875V24.4688C15.1875 24.9347 15.5653 25.3125 16.0312 25.3125H23.625C24.091 25.3125 24.4688 24.9347 24.4688 24.4688V12.6562C24.4688 12.4325 24.3799 12.2179 24.2216 12.0596L21.9375 9.77551V4.21875C21.9375 3.75276 21.5597 3.375 21.0938 3.375H19.4062C18.9403 3.375 18.5625 3.75276 18.5625 4.21875V6.40051L14.0966 1.93463ZM4.21875 23.625V13.0057L13.5 3.72449L22.7812 13.0057V23.625H16.875V16.875C16.875 16.409 16.4972 16.0312 16.0312 16.0312H10.9688C10.5028 16.0312 10.125 16.409 10.125 16.875V23.625H4.21875Z" fill="white"/>
<path d="M14.0966 1.93463C13.7671 1.60512 13.2329 1.60512 12.9034 1.93463L2.77838 12.0596C2.62014 12.2179 2.53125 12.4325 2.53125 12.6562V24.4688C2.53125 24.9347 2.90901 25.3125 3.375 25.3125H10.9688C11.4347 25.3125 11.8125 24.9347 11.8125 24.4688V17.7188H15.1875V24.4688C15.1875 24.9347 15.5653 25.3125 16.0312 25.3125H23.625C24.091 25.3125 24.4688 24.9347 24.4688 24.4688V12.6562C24.4688 12.4325 24.3799 12.2179 24.2216 12.0596L21.9375 9.77551V4.21875C21.9375 3.75276 21.5597 3.375 21.0938 3.375H19.4062C18.9403 3.375 18.5625 3.75276 18.5625 4.21875V6.40051L14.0966 1.93463ZM4.21875 23.625V13.0057L13.5 3.72449L22.7812 13.0057V23.625H16.875V16.875C16.875 16.409 16.4972 16.0312 16.0312 16.0312H10.9688C10.5028 16.0312 10.125 16.409 10.125 16.875V23.625H4.21875Z" stroke="white"/>
</svg>
