<svg width="27" height="27" viewBox="0 0 27 27" fill="none" xmlns="http://www.w3.org/2000/svg">
<path d="M22.5 2.25H4.5C3.375 2.25 2.25 3.2625 2.25 4.5V7.88625C2.25 8.69625 2.73375 9.39375 3.375 9.7875V22.5C3.375 23.7375 4.6125 24.75 5.625 24.75H21.375C22.3875 24.75 23.625 23.7375 23.625 22.5V9.7875C24.2663 9.39375 24.75 8.69625 24.75 7.88625V4.5C24.75 3.2625 23.625 2.25 22.5 2.25ZM21.375 22.5H5.625V10.125H21.375V22.5ZM22.5 7.875H4.5V4.5H22.5V7.875ZM16.875 13.5H10.125V15.75H16.875V13.5Z" fill="#9CA1B6"/>
<path d="M22.5 2.25H4.5C3.375 2.25 2.25 3.2625 2.25 4.5V7.88625C2.25 8.69625 2.73375 9.39375 3.375 9.7875V22.5C3.375 23.7375 4.6125 24.75 5.625 24.75H21.375C22.3875 24.75 23.625 23.7375 23.625 22.5V9.7875C24.2663 9.39375 24.75 8.69625 24.75 7.88625V4.5C24.75 3.2625 23.625 2.25 22.5 2.25ZM21.375 22.5H5.625V10.125H21.375V22.5ZM22.5 7.875H4.5V4.5H22.5V7.875ZM16.875 13.5H10.125V15.75H16.875V13.5Z" stroke="#9CA1B6"/>
</svg>
