<svg width="27" height="27" viewBox="0 0 27 27" fill="none" xmlns="http://www.w3.org/2000/svg">
<path d="M22.9097 9.61989L21.526 11.7011C22.1933 13.0321 22.52 14.5078 22.4768 15.9961C22.4336 17.4843 22.0219 18.9386 21.2785 20.2286H5.686C4.71981 18.5525 4.31946 16.6096 4.54428 14.6881C4.76911 12.7665 5.60715 10.9686 6.93416 9.56074C8.26118 8.15292 10.0065 7.21018 11.9115 6.87229C13.8164 6.53441 15.7795 6.81935 17.5097 7.68489L19.591 6.30114C17.472 4.94238 14.9586 4.33352 12.4527 4.57194C9.94688 4.81036 7.59337 5.8823 5.76868 7.61628C3.94398 9.35025 2.75353 11.6461 2.38774 14.1366C2.02196 16.627 2.50197 19.1682 3.751 21.3536C3.94732 21.6937 4.22922 21.9765 4.56868 22.1738C4.90814 22.3712 5.29334 22.4763 5.686 22.4786H21.2672C21.6637 22.4802 22.0536 22.377 22.3973 22.1794C22.7411 21.9819 23.0265 21.697 23.2247 21.3536C24.2613 19.558 24.7815 17.5109 24.7279 15.4383C24.6743 13.3657 24.049 11.3482 22.921 9.60864L22.9097 9.61989Z" fill="#9CA1B6"/>
<path d="M11.896 17.3149C12.105 17.5241 12.3531 17.69 12.6263 17.8033C12.8994 17.9165 13.1922 17.9748 13.4879 17.9748C13.7836 17.9748 14.0763 17.9165 14.3495 17.8033C14.6226 17.69 14.8708 17.5241 15.0798 17.3149L21.4472 7.76364L11.896 14.1311C11.6868 14.3401 11.5208 14.5882 11.4076 14.8614C11.2944 15.1345 11.2361 15.4273 11.2361 15.723C11.2361 16.0187 11.2944 16.3115 11.4076 16.5846C11.5208 16.8578 11.6868 17.1059 11.896 17.3149Z" fill="#9CA1B6"/>
</svg>
