<svg width="27" height="27" viewBox="0 0 27 27" fill="none" xmlns="http://www.w3.org/2000/svg">
<path d="M10.89 14.8387L13.5 12.8588L16.0988 14.8387L15.1088 11.6325L17.7188 9.5625H14.5238L13.5 6.40125L12.4763 9.5625H9.28125L11.88 11.6325L10.89 14.8387ZM22.5 10.6875C22.5 5.715 18.4725 1.6875 13.5 1.6875C8.5275 1.6875 4.5 5.715 4.5 10.6875C4.5 12.9712 5.355 15.0412 6.75 16.6275V25.3125L13.5 23.0625L20.25 25.3125V16.6275C21.645 15.0412 22.5 12.9712 22.5 10.6875ZM13.5 3.9375C17.2238 3.9375 20.25 6.96375 20.25 10.6875C20.25 14.4113 17.2238 17.4375 13.5 17.4375C9.77625 17.4375 6.75 14.4113 6.75 10.6875C6.75 6.96375 9.77625 3.9375 13.5 3.9375ZM13.5 20.8125L9 21.96V18.4725C10.3275 19.2375 11.8575 19.6875 13.5 19.6875C15.1425 19.6875 16.6725 19.2375 18 18.4725V21.96L13.5 20.8125Z" fill="#9CA1B6"/>
</svg>
